<?xml version="1.0" standalone="no"?>
<!DOCTYPE svg PUBLIC "-//W3C//DTD SVG 20010904//EN" "http://www.w3.org/TR/2001/REC-SVG-20010904/DTD/svg10.dtd">
<svg
  version="1.0"
  xmlns="http://www.w3.org/2000/svg"
  width="512.000000pt"
  height="512.000000pt"
  viewBox="0 0 512.000000 512.000000"
  preserveAspectRatio="xMidYMid meet"
>
  <metadata>Created by potrace 1.16, written by Peter Selinger 2001-2019</metadata>
  <g transform="translate(0.000000,512.000000) scale(0.100000,-0.100000)" fill="#000000" stroke="none">
    <path
      d="M1168 4082 l-1038 -1037 0 -115 c0 -281 79 -598 217 -874 114 -228
219 -373 404 -559 104 -105 131 -138 150 -185 151 -381 456 -746 819 -981 250
-162 552 -273 858 -315 130 -18 416 -21 542 -6 143 18 279 49 420 96 688 228
1209 786 1387 1487 31 119 34 141 23 167 -19 46 -86 57 -123 21 -10 -9 -30
-68 -47 -133 -144 -572 -519 -1035 -1045 -1294 -544 -267 -1172 -270 -1720 -8
-328 156 -629 426 -819 734 -74 119 -78 130 -39 102 49 -35 261 -137 363 -175
215 -80 415 -117 666 -124 285 -8 477 19 733 103 773 254 1329 929 1437 1745
20 155 15 477 -10 613 -9 49 -15 90 -14 92 7 6 104 -118 173 -221 219 -327
335 -714 335 -1119 0 -94 2 -104 23 -124 30 -28 80 -29 108 -1 21 21 21 28 16
218 -3 121 -11 232 -22 291 -84 461 -283 838 -613 1163 -98 96 -113 115 -142
185 -132 319 -386 647 -665 858 -360 274 -813 434 -1225 434 l-115 0 -1037
-1038z m1355 867 c187 -22 418 -95 612 -192 193 -96 349 -209 510 -371 391
-391 593 -906 572 -1460 -15 -405 -146 -779 -388 -1106 -81 -109 -290 -318
-399 -399 -571 -423 -1324 -509 -1968 -226 -670 294 -1117 928 -1176 1668 l-5
67 44 0 c57 0 254 26 329 44 67 16 83 29 92 73 5 26 1 37 -19 57 -30 30 -53
32 -152 12 -38 -8 -92 -17 -120 -21 l-50 -6 875 875 c481 481 876 874 878 872
9 -10 -40 -252 -73 -360 -96 -317 -253 -576 -494 -817 -183 -183 -358 -306
-577 -404 -104 -47 -134 -72 -134 -112 0 -32 42 -73 76 -73 40 0 293 127 414
207 440 292 756 734 886 1240 34 133 64 325 64 409 l0 44 58 -5 c31 -4 97 -11
145 -16z"
    />
    <path
      d="M1684 3306 c-95 -42 -131 -206 -72 -325 28 -56 65 -83 111 -83 80 0
137 86 137 206 0 145 -85 242 -176 202z"
    />
    <path
      d="M3120 3302 c-85 -47 -119 -211 -65 -318 31 -60 65 -86 112 -86 80 0
138 89 138 212 0 62 -4 83 -25 119 -44 78 -102 104 -160 73z"
    />
    <path
      d="M2075 2585 c-35 -34 -31 -62 15 -133 113 -175 348 -241 536 -152 106
51 214 172 214 240 0 31 -44 70 -79 70 -21 0 -36 -8 -53 -31 -62 -85 -123
-137 -177 -153 -68 -20 -103 -20 -170 0 -54 16 -114 67 -174 147 -34 45 -75
50 -112 12z"
    />
  </g>
</svg>
